<?xml version="1.0" standalone="no"?>
<!DOCTYPE svg PUBLIC "-//W3C//DTD SVG 20010904//EN"
 "http://www.w3.org/TR/2001/REC-SVG-20010904/DTD/svg10.dtd">
<svg version="1.0" xmlns="http://www.w3.org/2000/svg"
 width="300.000000pt" height="169.000000pt" viewBox="0 0 300.000000 169.000000"
 preserveAspectRatio="xMidYMid meet">
<metadata>
Created by potrace 1.10, written by Peter Selinger 2001-2011
</metadata>
<g transform="translate(0.000000,169.000000) scale(0.100000,-0.100000)"
fill="#000000" stroke="none">
<path d="M1646 1588 c-20 -31 -40 -87 -33 -94 3 -3 13 8 22 25 8 17 19 31 24
31 18 0 34 -170 19 -202 -5 -11 -5 -18 1 -18 10 0 23 -46 26 -92 2 -26 -1 -28
-39 -30 l-41 -1 40 -5 c32 -3 36 -6 20 -12 -18 -8 -18 -9 5 -9 33 -1 51 -43
37 -86 -18 -52 -26 -55 -104 -39 -16 3 -26 16 -34 43 -12 41 -6 77 11 66 5 -3
10 -2 10 4 0 5 8 12 18 14 9 2 5 3 -10 1 -42 -5 -56 4 -80 54 -12 26 -24 49
-25 51 -4 6 -35 -36 -44 -59 -4 -8 -4 -19 -1 -24 3 -6 13 8 22 30 l17 39 17
-39 c9 -21 16 -41 16 -44 0 -2 -20 -2 -44 0 -25 3 -49 1 -54 -4 -7 -7 -18 -5
-33 6 -28 19 -80 21 -98 4 -18 -18 -4 55 19 102 16 32 17 38 3 65 -20 36 -13
189 9 211 12 12 18 2 41 -68 15 -46 27 -95 27 -110 0 -16 5 -28 10 -28 6 0 10
5 10 10 0 6 4 10 9 10 6 0 6 -12 0 -32 -13 -45 -11 -52 6 -38 13 11 15 8 15
-21 l1 -34 13 25 c7 14 16 39 19 56 5 25 3 31 -10 30 -9 0 -24 11 -32 26 -23
41 -6 62 53 66 46 3 47 3 66 -40 28 -64 6 -117 -30 -73 -7 8 -16 15 -21 15
-14 0 -10 -30 6 -46 8 -9 15 -26 15 -39 0 -13 4 -26 9 -29 10 -7 21 16 21 47
1 20 2 21 14 5 20 -27 24 -22 16 22 -6 31 -4 40 7 40 11 0 11 5 -2 30 -12 22
-13 35 -5 49 13 25 13 41 0 21 -7 -12 -12 -12 -22 -2 -9 9 -9 12 0 12 7 0 12
5 12 10 0 6 -13 10 -29 10 -20 0 -31 6 -34 18 -4 14 -6 14 -12 -5 -9 -28 -9
-28 -42 -6 -24 16 -26 16 -21 2 5 -13 0 -18 -21 -21 -27 -4 -30 -1 -45 49 -19
59 -32 72 -52 52 -20 -21 -37 -156 -24 -199 13 -45 13 -83 0 -75 -5 3 -10 3
-10 -2 -1 -4 -3 -32 -5 -62 -4 -48 -1 -58 20 -79 21 -21 26 -22 31 -8 3 9 17
16 30 16 18 0 25 -7 30 -27 4 -16 10 -33 15 -38 4 -6 2 -22 -4 -35 -10 -19
-23 -26 -55 -31 -31 -4 -42 -2 -42 8 0 7 -7 13 -15 13 -9 0 -15 10 -15 26 0
17 4 23 13 18 9 -6 9 -5 0 7 -7 8 -10 24 -7 36 4 13 0 22 -12 27 -9 3 -19 4
-22 1 -12 -11 -9 -92 4 -112 11 -17 14 -62 14 -187 l0 -164 -35 -52 c-22 -32
-57 -66 -92 -89 -54 -35 -109 -88 -130 -125 -5 -10 -16 -13 -31 -9 -19 4 -22
12 -22 52 0 25 5 63 10 83 l11 37 107 4 107 3 -116 2 -116 2 -7 -46 c-3 -26
-6 -64 -6 -85 0 -21 -5 -50 -10 -65 -6 -15 -13 -66 -16 -113 -2 -47 -7 -104
-10 -126 -12 -90 -14 -200 -4 -185 5 8 10 36 10 62 0 26 5 94 10 150 6 57 13
127 16 156 5 48 8 52 31 52 22 0 24 -3 19 -22 -32 -108 -61 -408 -40 -408 5 0
10 48 12 108 4 124 16 216 38 287 19 57 64 130 74 118 4 -4 16 -33 26 -63 15
-45 19 -84 19 -210 0 -85 -4 -175 -8 -200 -6 -38 -5 -42 5 -25 8 14 12 79 13
205 0 166 -2 191 -22 245 -25 69 -22 75 46 113 l39 22 -14 -52 c-8 -29 -18
-97 -21 -150 l-6 -97 61 -27 61 -26 -44 -37 c-24 -20 -44 -43 -44 -51 0 -8 8
-49 19 -90 10 -41 19 -64 19 -50 0 14 -6 52 -14 85 l-15 60 47 42 c26 23 46
44 43 46 -3 3 -31 17 -63 31 l-59 26 7 87 c8 109 29 193 63 257 l27 50 5 -45
c3 -24 2 -46 -1 -49 -7 -6 8 -189 21 -253 6 -26 10 -64 10 -84 0 -50 12 -34
14 19 1 47 29 67 41 29 3 -12 11 -21 16 -21 5 0 2 11 -7 25 -16 24 -16 27 2
48 10 12 12 16 4 9 -21 -18 -35 -15 -49 11 -9 17 -10 17 -5 2 10 -33 10 -48
-2 -52 -18 -6 -28 102 -12 126 13 18 15 18 45 -10 21 -18 28 -31 21 -35 -6 -4
-16 0 -22 8 -6 8 -20 17 -31 21 -13 5 -9 -3 13 -22 53 -45 179 -73 248 -55 15
4 20 11 17 25 -3 10 -1 19 4 19 5 0 18 7 29 15 17 13 16 13 -13 3 -20 -7 -33
-20 -35 -32 -3 -24 -38 -35 -38 -12 0 8 8 17 18 19 9 3 -14 5 -51 6 -89 1
-148 31 -194 96 -18 27 -21 48 -25 218 l-5 189 20 -31 c11 -18 32 -38 48 -47
16 -8 29 -22 29 -31 0 -13 -3 -14 -12 -5 -7 7 -17 12 -23 12 -5 0 1 -9 14 -19
24 -18 24 -21 12 -61 -34 -115 38 -240 139 -240 34 0 90 25 90 40 0 5 11 21
25 36 21 22 25 37 25 85 0 32 -4 61 -10 64 -18 11 -11 56 13 76 l22 20 -22
-11 c-20 -9 -23 -8 -23 8 0 10 11 24 24 30 14 6 32 23 42 36 23 36 32 25 24
-27 -8 -52 -4 -87 16 -145 23 -68 18 -122 -14 -173 -16 -24 -38 -52 -49 -62
-13 -11 -19 -26 -16 -38 3 -10 1 -19 -4 -19 -5 0 -18 -7 -29 -15 -19 -15 -19
-15 1 -8 27 9 95 62 95 74 0 6 -5 7 -11 3 -7 -4 -10 1 -7 12 2 11 8 18 13 17
10 -3 11 -7 14 -40 1 -21 7 -15 15 20 4 19 3 26 -4 22 -5 -3 -10 -1 -10 4 0 6
0 13 0 16 0 3 3 5 6 4 15 -2 24 30 24 91 0 61 1 63 15 43 18 -25 55 -215 55
-279 0 -39 -4 -45 -50 -78 -27 -20 -50 -40 -50 -44 0 -5 21 -19 46 -31 25 -13
48 -29 51 -37 3 -7 -4 -54 -15 -104 -11 -49 -17 -90 -13 -90 7 0 41 161 41
192 0 8 -22 27 -50 42 -27 15 -50 29 -50 31 0 1 23 17 50 35 49 32 50 33 50
84 0 28 -7 86 -15 129 -8 43 -15 85 -15 93 0 38 134 -63 163 -123 15 -31 27
-43 43 -43 17 0 25 -9 33 -38 l11 -37 -5 35 c-3 19 -13 78 -23 130 l-18 95
-88 1 c-87 2 -136 16 -136 39 0 7 -8 23 -19 36 -14 19 -20 49 -26 139 -4 63
-8 137 -10 165 -2 31 2 57 11 69 18 26 18 90 1 105 -8 6 -17 8 -20 4 -4 -3 -7
7 -8 23 -1 16 -2 38 -3 49 -1 11 -3 37 -4 58 -1 26 -7 37 -17 37 -12 0 -13 4
-5 19 14 27 12 73 -5 155 -18 84 -28 97 -49 64z m-92 -431 c4 -15 2 -16 -10
-6 -7 6 -27 9 -44 7 -18 -3 -30 0 -30 6 0 7 17 11 39 11 30 0 41 -4 45 -18z
m-29 -15 c7 -5 7 -18 -1 -42 l-11 -34 -18 33 c-14 28 -14 35 -3 42 16 11 20
11 33 1z m-45 -36 c0 -6 9 -22 19 -35 l18 -24 12 35 c12 35 36 46 45 21 4 -9
1 -11 -5 -7 -7 4 -10 1 -7 -7 3 -8 11 -13 17 -11 7 1 10 -2 7 -6 -3 -5 3 -17
13 -26 13 -12 32 -15 72 -12 l54 3 -5 -62 c-5 -59 -16 -85 -50 -112 -25 -20
-30 -15 -31 30 0 23 -4 62 -8 87 -6 30 -7 -4 -6 -98 1 -91 6 -147 14 -155 6
-6 11 -36 11 -67 0 -50 -4 -59 -39 -96 -67 -72 -126 -72 -186 1 -43 53 -35 60
13 11 18 -19 46 -36 63 -38 38 -6 90 19 105 51 7 13 18 28 26 32 11 7 11 9 0
9 -8 0 -13 10 -12 28 3 44 1 52 -16 52 -8 0 -12 5 -9 10 11 18 -60 228 -73
215 -6 -6 48 -217 59 -229 4 -5 2 -20 -4 -33 -10 -21 -8 -27 12 -42 l23 -17
-27 -32 c-35 -42 -86 -44 -127 -5 -32 31 -34 41 -12 57 12 9 13 17 5 37 -7 20
-4 46 14 110 26 90 42 189 26 154 -5 -11 -10 -15 -11 -10 -5 26 -42 -152 -42
-197 1 -11 -7 -18 -19 -18 -14 0 -19 -7 -19 -24 0 -14 5 -28 10 -31 15 -9 12
-35 -5 -35 -17 0 -31 62 -19 87 10 24 13 317 2 301 -4 -7 -8 -46 -8 -85 0 -40
-4 -73 -9 -73 -31 0 -81 100 -81 161 0 25 2 26 53 21 43 -3 56 0 77 18 14 12
18 19 10 15 -8 -4 -4 2 9 13 13 10 21 24 18 29 -3 5 0 10 8 10 8 0 15 -5 15
-11z m527 -547 c20 -63 26 -109 14 -109 -6 0 -16 12 -22 28 -6 15 -35 50 -65
77 l-54 50 58 -5 c55 -5 57 -6 69 -41z m-467 -168 c0 -10 -9 -12 -37 -7 -21 3
-44 6 -50 6 -7 0 -13 4 -13 9 0 5 23 9 50 8 36 -1 50 -6 50 -16z"/>
<path d="M1540 671 c0 -22 3 -42 8 -45 4 -2 7 15 7 40 0 24 -3 44 -7 44 -5 0
-8 -18 -8 -39z"/>
<path d="M1347 1500 c4 -19 7 -62 7 -95 -1 -48 0 -55 8 -35 12 30 4 121 -12
147 -9 14 -9 11 -3 -17z"/>
<path d="M1640 1495 c-12 -38 -6 -120 11 -145 8 -12 9 -11 5 5 -15 57 -17 96
-7 131 14 49 7 57 -9 9z"/>
<path d="M1906 532 c-3 -5 -8 -29 -11 -53 l-5 -44 14 50 c14 48 15 67 2 47z"/>
<path d="M1731 412 c-1 -20 -4 -21 -23 -12 -22 10 -22 10 -4 -4 16 -13 18 -25
13 -98 l-6 -83 14 100 c8 55 13 105 11 110 -3 6 -5 0 -5 -13z"/>
<path d="M1884 260 c0 -96 2 -136 3 -87 2 48 2 126 0 175 -1 48 -3 8 -3 -88z"/>
<path d="M2015 410 c27 -111 36 -172 41 -282 4 -71 10 -128 13 -128 3 0 3 57
-1 128 -7 128 -29 260 -49 291 -8 13 -9 11 -4 -9z"/>
<path d="M1661 363 c-8 -15 -11 -15 -28 -3 -17 14 -17 14 -4 -3 11 -14 11 -23
3 -42 -7 -15 -8 -25 -2 -25 6 0 10 3 10 8 0 4 4 13 9 21 8 13 12 13 28 1 17
-14 17 -14 1 5 -12 15 -14 25 -7 38 6 9 8 17 5 17 -3 0 -9 -8 -15 -17z"/>
<path d="M1420 353 c0 -5 5 -14 10 -19 8 -8 6 -15 -5 -24 -8 -7 -15 -17 -15
-23 0 -5 9 -2 21 9 20 18 22 18 34 1 6 -9 16 -17 20 -17 5 0 0 9 -11 21 -16
18 -16 23 -4 42 12 20 12 21 -3 8 -14 -11 -20 -11 -32 -1 -8 7 -15 8 -15 3z"/>
<path d="M1520 354 c0 -6 5 -15 11 -21 8 -8 8 -17 0 -31 -17 -31 -13 -40 5
-14 15 22 17 22 35 6 34 -31 20 1 -16 36 -19 19 -35 29 -35 24z"/>
<path d="M2072 340 c0 -14 6 -47 13 -75 7 -29 13 -39 13 -25 0 14 -6 48 -13
75 -7 29 -13 39 -13 25z"/>
<path d="M1368 261 c10 -6 10 -10 -3 -21 -10 -8 -15 -9 -15 -1 0 6 -5 11 -11
11 -8 0 -8 -4 0 -14 6 -7 8 -22 4 -32 -6 -17 -7 -16 -14 2 -5 12 -7 -4 -7 -41
0 -65 14 -187 17 -144 0 14 7 34 15 44 14 19 15 19 38 0 l23 -20 -22 26 c-21
23 -22 26 -6 42 10 10 12 17 6 17 -7 0 -16 -7 -20 -15 -8 -13 -11 -14 -28 0
-17 13 -18 16 -5 25 10 6 11 10 3 10 -17 0 -16 21 3 45 14 19 16 19 28 3 7
-10 17 -18 21 -18 5 0 0 9 -9 19 -14 15 -15 24 -7 39 6 11 16 23 23 25 7 3 0
6 -17 6 -19 0 -25 -2 -17 -8z"/>
<path d="M1430 258 c0 -5 5 -18 10 -29 8 -13 7 -26 -1 -41 -12 -22 -11 -22 8
-6 18 17 20 17 38 0 19 -17 19 -17 1 5 -14 17 -16 26 -6 45 10 21 10 21 -3 5
-12 -15 -16 -15 -26 -3 -10 11 -8 15 6 18 15 3 14 5 -4 10 -13 3 -23 2 -23 -4z"/>
<path d="M1564 236 c-5 -14 -9 -14 -22 -4 -13 11 -14 10 -8 -10 5 -14 3 -30
-6 -40 -12 -16 -11 -16 8 0 19 17 21 17 39 0 19 -17 19 -17 1 5 -16 19 -17 25
-6 38 7 9 10 18 7 22 -4 3 -9 -2 -13 -11z"/>
<path d="M1656 234 c-5 -14 -9 -14 -24 -3 -15 12 -16 12 -5 -1 8 -10 9 -21 3
-30 -16 -24 -11 -35 5 -14 15 19 15 19 30 0 8 -11 15 -15 15 -9 0 6 -7 16 -15
23 -14 12 -14 15 1 31 10 11 12 19 7 19 -6 0 -14 -7 -17 -16z"/>
<path d="M1702 188 c-1 -16 -9 -28 -19 -31 -17 -4 -17 -5 0 -6 13 -1 17 -10
17 -41 0 -43 -13 -52 -29 -22 -7 13 -6 23 2 32 10 10 8 12 -7 6 -10 -3 -26 -1
-35 6 -14 12 -14 11 -2 -5 12 -15 11 -20 -4 -37 -19 -21 -7 -28 13 -8 15 15
55 -19 49 -43 -3 -9 -1 -22 3 -29 10 -16 24 121 17 170 -3 27 -4 29 -5 8z"/>
<path d="M2100 194 c1 -29 37 -185 45 -192 4 -4 5 2 2 13 -3 11 -13 58 -22
105 -17 85 -25 110 -25 74z"/>
<path d="M1466 125 c-5 -13 -10 -14 -28 -4 -22 11 -22 11 -6 -7 12 -14 14 -24
7 -39 -10 -20 -10 -20 5 -1 15 19 16 19 38 0 l23 -19 -22 26 c-21 23 -22 26
-6 42 10 9 12 17 6 17 -6 0 -14 -7 -17 -15z"/>
<path d="M1530 132 c0 -6 5 -14 11 -17 7 -5 4 -14 -8 -28 -17 -21 -17 -22 2
-5 18 17 20 17 39 0 20 -16 20 -16 6 1 -12 16 -12 22 0 40 12 20 12 21 -3 8
-14 -11 -20 -11 -32 -1 -9 8 -15 9 -15 2z"/>
<path d="M1493 43 c26 -2 68 -2 95 0 26 2 4 3 -48 3 -52 0 -74 -1 -47 -3z"/>
</g>
</svg>
